<svg width="196" height="54" viewBox="0 0 196 54" fill="none" xmlns="http://www.w3.org/2000/svg">
<path d="M7.03246 43.1626V14.6346H8.17358L21.6225 37.9868H21.0112L34.3785 14.6346H35.5197L35.5604 43.1626H34.2155L34.1748 16.6723H34.6231L21.6632 39.2094H20.9297L7.8883 16.6723H8.37735V43.1626H7.03246ZM57.8145 43.3256C55.7224 43.3256 53.7798 42.9724 51.9866 42.266C50.1934 41.5324 48.6312 40.5136 47.2999 39.2094C45.9686 37.9053 44.9361 36.3838 44.2025 34.645C43.469 32.8789 43.1022 30.9635 43.1022 28.8986C43.1022 26.8337 43.469 24.9319 44.2025 23.193C44.9361 21.427 45.9686 19.8919 47.2999 18.5878C48.6312 17.2837 50.1934 16.2784 51.9866 15.572C53.7798 14.8384 55.7224 14.4716 57.8145 14.4716C59.9337 14.4716 61.8899 14.8384 63.6831 15.572C65.4763 16.2784 67.0249 17.2837 68.3291 18.5878C69.6604 19.8919 70.6928 21.427 71.4264 23.193C72.1871 24.9319 72.5675 26.8337 72.5675 28.8986C72.5675 30.9635 72.1871 32.8789 71.4264 34.645C70.6928 36.3838 69.6604 37.9053 68.3291 39.2094C67.0249 40.5136 65.4763 41.5324 63.6831 42.266C61.8899 42.9724 59.9337 43.3256 57.8145 43.3256ZM57.8145 42.0622C59.7163 42.0622 61.4823 41.7362 63.1125 41.0841C64.7427 40.4321 66.1555 39.5083 67.3509 38.3128C68.5736 37.1174 69.5109 35.7317 70.163 34.1559C70.8422 32.5529 71.1818 30.8005 71.1818 28.8986C71.1818 26.9968 70.8422 25.2579 70.163 23.6821C69.5109 22.0791 68.5736 20.6798 67.3509 19.4844C66.1555 18.2889 64.7427 17.3652 63.1125 16.7131C61.4823 16.061 59.7163 15.735 57.8145 15.735C55.9398 15.735 54.1873 16.061 52.5572 16.7131C50.927 17.3652 49.5006 18.2889 48.278 19.4844C47.0825 20.6798 46.1452 22.0791 45.4659 23.6821C44.8139 25.2579 44.4878 26.9968 44.4878 28.8986C44.4878 30.8005 44.8139 32.5529 45.4659 34.1559C46.1452 35.7317 47.0825 37.1174 48.278 38.3128C49.5006 39.5083 50.927 40.4321 52.5572 41.0841C54.1873 41.7362 55.9398 42.0622 57.8145 42.0622ZM80.1035 43.1626V14.6346H81.2446L102.192 41.5324H101.499V14.6346H102.885V43.1626H101.744L80.7963 16.2648H81.4892V43.1626H80.1035ZM119.979 43.1626V33.0148L120.305 33.9521L108.445 14.6346H109.953L121.038 32.648H120.345L131.471 14.6346H132.939L121.038 33.9521L121.364 33.0148V43.1626H119.979ZM138.834 28.9394H154.565V30.162H138.834V28.9394ZM139.078 43.1626H137.693V14.6346H156.399V15.898H139.078V43.1626ZM163.363 43.1626V14.6346H164.749V43.1626H163.363ZM170.904 43.1626L182.356 27.8798V28.9801L171.679 14.6346H173.309L183.09 27.7575H182.56L192.341 14.6346H193.89L183.334 28.7764V28.0428L194.705 43.1626H193.075L182.519 29.0616H183.049L172.494 43.1626H170.904Z" fill="#6150DC"/>
<path d="M5.21654 42.2544V13.7264H6.35766L19.8066 37.0786H19.1952L32.5626 13.7264H33.7037L33.7445 42.2544H32.3996L32.3589 15.7641H32.8072L19.8473 38.3012H19.1137L6.07238 15.7641H6.56143V42.2544H5.21654ZM55.9985 42.4174C53.9065 42.4174 51.9639 42.0642 50.1707 41.3578C48.3775 40.6242 46.8153 39.6054 45.4839 38.3012C44.1526 36.9971 43.1202 35.4756 42.3866 33.7368C41.6531 31.9707 41.2863 30.0553 41.2863 27.9904C41.2863 25.9255 41.6531 24.0237 42.3866 22.2848C43.1202 20.5188 44.1526 18.9837 45.4839 17.6796C46.8153 16.3755 48.3775 15.3702 50.1707 14.6638C51.9639 13.9302 53.9065 13.5634 55.9985 13.5634C58.1178 13.5634 60.074 13.9302 61.8672 14.6638C63.6603 15.3702 65.209 16.3755 66.5131 17.6796C67.8444 18.9837 68.8769 20.5188 69.6105 22.2848C70.3712 24.0237 70.7516 25.9255 70.7516 27.9904C70.7516 30.0553 70.3712 31.9707 69.6105 33.7368C68.8769 35.4756 67.8444 36.9971 66.5131 38.3012C65.209 39.6054 63.6603 40.6242 61.8672 41.3578C60.074 42.0642 58.1178 42.4174 55.9985 42.4174ZM55.9985 41.154C57.9004 41.154 59.6664 40.828 61.2966 40.1759C62.9268 39.5239 64.3396 38.6001 65.535 37.4046C66.7577 36.2092 67.695 34.8235 68.3471 33.2477C69.0263 31.6447 69.3659 29.8923 69.3659 27.9904C69.3659 26.0885 69.0263 24.3497 68.3471 22.7739C67.695 21.1709 66.7577 19.7716 65.535 18.5762C64.3396 17.3807 62.9268 16.457 61.2966 15.8049C59.6664 15.1528 57.9004 14.8268 55.9985 14.8268C54.1238 14.8268 52.3714 15.1528 50.7412 15.8049C49.1111 16.457 47.6847 17.3807 46.4621 18.5762C45.2666 19.7716 44.3292 21.1709 43.65 22.7739C42.9979 24.3497 42.6719 26.0885 42.6719 27.9904C42.6719 29.8923 42.9979 31.6447 43.65 33.2477C44.3292 34.8235 45.2666 36.2092 46.4621 37.4046C47.6847 38.6001 49.1111 39.5239 50.7412 40.1759C52.3714 40.828 54.1238 41.154 55.9985 41.154ZM78.2876 42.2544V13.7264H79.4287L100.376 40.6242H99.6836V13.7264H101.069V42.2544H99.9281L78.9804 15.3566H79.6732V42.2544H78.2876ZM118.163 42.2544V32.1066L118.489 33.0439L106.629 13.7264H108.137L119.222 31.7398H118.53L129.655 13.7264H131.123L119.222 33.0439L119.548 32.1066V42.2544H118.163ZM137.018 28.0312H152.749V29.2538H137.018V28.0312ZM137.262 42.2544H135.877V13.7264H154.583V14.9898H137.262V42.2544ZM161.547 42.2544V13.7264H162.933V42.2544H161.547ZM169.088 42.2544L180.54 26.9716V28.0719L169.863 13.7264H171.493L181.274 26.8493H180.744L190.525 13.7264H192.074L181.518 27.8682V27.1346L192.889 42.2544H191.259L180.703 28.1534H181.233L170.678 42.2544H169.088Z" fill="#51D5E0"/>
<path d="M6.12474 40.4385V11.9105H7.26586L20.7148 35.2627H20.1034L33.4708 11.9105H34.612L34.6527 40.4385H33.3078L33.2671 13.9482H33.7154L20.7555 36.4853H20.0219L6.98058 13.9482H7.46963V40.4385H6.12474ZM56.9067 40.6015C54.8147 40.6015 52.8721 40.2483 51.0789 39.5419C49.2857 38.8083 47.7235 37.7895 46.3922 36.4853C45.0608 35.1812 44.0284 33.6597 43.2948 31.9208C42.5613 30.1548 42.1945 28.2394 42.1945 26.1745C42.1945 24.1096 42.5613 22.2077 43.2948 20.4689C44.0284 18.7029 45.0608 17.1678 46.3922 15.8637C47.7235 14.5595 49.2857 13.5543 51.0789 12.8479C52.8721 12.1143 54.8147 11.7475 56.9067 11.7475C59.026 11.7475 60.9822 12.1143 62.7754 12.8479C64.5685 13.5543 66.1172 14.5595 67.4213 15.8637C68.7526 17.1678 69.7851 18.7029 70.5187 20.4689C71.2794 22.2077 71.6598 24.1096 71.6598 26.1745C71.6598 28.2394 71.2794 30.1548 70.5187 31.9208C69.7851 33.6597 68.7526 35.1812 67.4213 36.4853C66.1172 37.7895 64.5685 38.8083 62.7754 39.5419C60.9822 40.2483 59.026 40.6015 56.9067 40.6015ZM56.9067 39.3381C58.8086 39.3381 60.5746 39.0121 62.2048 38.36C63.835 37.7079 65.2478 36.7842 66.4432 35.5887C67.6659 34.3933 68.6032 33.0076 69.2553 31.4318C69.9345 29.8288 70.2741 28.0764 70.2741 26.1745C70.2741 24.2726 69.9345 22.5338 69.2553 20.958C68.6032 19.355 67.6659 17.9557 66.4432 16.7603C65.2478 15.5648 63.835 14.641 62.2048 13.989C60.5746 13.3369 58.8086 13.0109 56.9067 13.0109C55.032 13.0109 53.2796 13.3369 51.6494 13.989C50.0193 14.641 48.5929 15.5648 47.3703 16.7603C46.1748 17.9557 45.2374 19.355 44.5582 20.958C43.9061 22.5338 43.5801 24.2726 43.5801 26.1745C43.5801 28.0764 43.9061 29.8288 44.5582 31.4318C45.2374 33.0076 46.1748 34.3933 47.3703 35.5887C48.5929 36.7842 50.0193 37.7079 51.6494 38.36C53.2796 39.0121 55.032 39.3381 56.9067 39.3381ZM79.1958 40.4385V11.9105H80.3369L101.285 38.8083H100.592V11.9105H101.977V40.4385H100.836L79.8886 13.5407H80.5814V40.4385H79.1958ZM119.071 40.4385V30.2907L119.397 31.228L107.538 11.9105H109.045L120.131 29.9239H119.438L130.564 11.9105H132.031L120.131 31.228L120.457 30.2907V40.4385H119.071ZM137.926 26.2152H153.657V27.4379H137.926V26.2152ZM138.171 40.4385H136.785V11.9105H155.491V13.1739H138.171V40.4385ZM162.455 40.4385V11.9105H163.841V40.4385H162.455ZM169.997 40.4385L181.448 25.1556V26.256L170.771 11.9105H172.401L182.182 25.0334H181.652L191.433 11.9105H192.982L182.427 26.0522V25.3187L193.797 40.4385H192.167L181.612 26.3375H182.141L171.586 40.4385H169.997Z" fill="#C4F20B"/>
</svg>
